{"title":"Full Metal Jacket (1987) 720p MKV x264 AC3 BRrip [Pioneer]","uid":8380682,"size":2658975928,"categoryP":"video","categoryS":"hd___movies","magnet":"?xt=urn:btih:29b80da137fc25bbb3405d0ce066e097eb80335f&amp;dn=Full+Metal+Jacket+%281987%29+720p+MKV+x264+AC3+BRrip+%5BPioneer%5D&amp;tr=udp%3A%2F%2Ftracker.openbittorrent.com%3A80&amp;tr=udp%3A%2F%2Fopen.demonii.com%3A1337&amp;tr=udp%3A%2F%2Ftracker.coppersurfer.tk%3A6969&amp;tr=udp%3A%2F%2Fexodus.desync.com%3A6969","seeders":4,"leechers":1,"uploader":"Pioneer47","files":-1,"time":1366150360,"description":"Stanley Kubrick's return to filmmaking after a seven-year hiatus, this film crystallizes the experience of the Vietnam War by concentrating on a group of raw Marine volunteers. Based on Gustav Hasford's novel The Short Timers, the film's first half details the volunteers' harrowing boot-camp training under the profane, power-saw guidance of drill instructor Sgt. Hartman (R. Lee Ermey, a real-life drill instructor whose performance is one of the most terrifyingly realistic on record). Part two takes place in Nam, as seen through the eyes of the now thoroughly indoctrinated marines. Ironically, Full Metal Jacket was filmed almost entirely in England.\n\nStarring: Vincent D'Onofrio, Kevyn Ma, Vincent D'Onofrio, Kevyn Major Howard, R. Lee Ermey, Matthew Modine, Arliss Howard, Ed O'Ross, Dorian Harewood, Adam Baldwin\nDirector: Stanley Kubrick\n\n\n &lt;a href=&quot;\nhttp://www.imdb.com/title/tt0093058/&quot; rel=&quot;nofollow&quot; target=&quot;_NEW&quot;&gt;\nhttp://www.imdb.com/title/tt0093058/&lt;/a&gt;\n\n\n &lt;a href=&quot;\nhttp://stpicz.com/3804_vlcsnap_2013_04_16_20h26m50s194_oxoz.png&quot; rel=&quot;nofollow&quot; target=&quot;_NEW&quot;&gt;\nhttp://stpicz.com/3804_vlcsnap_2013_04_16_20h26m50s194_oxoz.png&lt;/a&gt; &lt;a href=&quot;\nhttp://stpicz.com/2618_vlcsnap_2013_04_16_20h20m44s111_8yo5.png&quot; rel=&quot;nofollow&quot; target=&quot;_NEW&quot;&gt;\nhttp://stpicz.com/2618_vlcsnap_2013_04_16_20h20m44s111_8yo5.png&lt;/a&gt; &lt;a href=&quot;\nhttp://stpicz.com/3804_vlcsnap_2013_04_16_20h27m51s21_zclk.png&quot; rel=&quot;nofollow&quot; target=&quot;_NEW&quot;&gt;\nhttp://stpicz.com/3804_vlcsnap_2013_04_16_20h27m51s21_zclk.png&lt;/a&gt; &lt;a href=&quot;\nhttp://stpicz.com/6845_vlcsnap_2013_04_16_20h19m49s64_ltr1.png&quot; rel=&quot;nofollow&quot; target=&quot;_NEW&quot;&gt;\nhttp://stpicz.com/6845_vlcsnap_2013_04_16_20h19m49s64_ltr1.png&lt;/a&gt; &lt;a href=&quot;\nhttp://stpicz.com/1645_vlcsnap_2013_04_16_20h25m19s17_rkg2.png&quot; rel=&quot;nofollow&quot; target=&quot;_NEW&quot;&gt;\nhttp://stpicz.com/1645_vlcsnap_2013_04_16_20h25m19s17_rkg2.png&lt;/a&gt;\n\n\n\n\nGeneral\nUnique ID: 173345961499484559185945640868579829879 (0x826937C1ADA1307BC1EAC4E20B6EE877)\nComplete name: E:Full Metal Jacket (1987) 720p MKV x264 AC3 BDrip [Pioneer].mkv\nFormat: Matroska\nFormat version: Version 2\nFile size: 2.48 GiB\nDuration: 1h 56mn\nOverall bit rate: 3 043 Kbps\nWriting application: HandBrake 0.9.8\nWriting library: libmkv 0.6.5\n\nVideo\nID: 1\nFormat: AVC\nFormat/Info: Advanced Video Codec\nFormat profile: &lt;a class=&quot;__cf_email__&quot; href=&quot;/cdn-cgi/l/email-protection&quot; data-cfemail=&quot;2c64454b446c6018021c&quot;&gt;[email&amp;#160;protected]&lt;/a&gt;&lt;script cf-hash='f9e31' type=&quot;text/javascript&quot;&gt;\n/* &lt;![CDATA[ */!function(){try{var t=&quot;currentScript&quot;in document?document.currentScript:function(){for(var t=document.getElementsByTagName(&quot;script&quot;),e=t.length;e--;)if(t[e].getAttribute(&quot;cf-hash&quot;))return t[e]}();if(t&amp;&amp;t.previousSibling){var e,r,n,i,c=t.previousSibling,a=c.getAttribute(&quot;data-cfemail&quot;);if(a){for(e=&quot;&quot;,r=parseInt(a.substr(0,2),16),n=2;a.length-n;n+=2)i=parseInt(a.substr(n,2),16)^r,e+=String.fromCharCode(i);e=document.createTextNode(e),c.parentNode.replaceChild(e,c)}}}catch(u){}}();/* ]]&gt; */&lt;/script&gt;\nFormat settings, CABAC: Yes\nFormat settings, ReFrames: 5 frames\nCodec ID: V_MPEG4/ISO/AVC\nDuration: 1h 56mn\nBit rate: 2 400 Kbps\nWidth: 1 280 pixels\nHeight: 720 pixels\nDisplay aspect ratio: 16:9\nFrame rate mode: Constant\nFrame rate: 23.976 fps\nColor space: YUV\nChroma subsampling: 4:2:0\nBit depth: 8 bits\nScan type: Progressive\nBits/(Pixel*Frame): 0.109\nStream size: 1.91 GiB (77%)\nWriting library: x264 core 120\nLanguage: English\nDefault: Yes\nForced: No\nColor primaries: BT.709\nTransfer characteristics: BT.709\nMatrix coefficients: BT.709\n\nAudio\nID: 2\nFormat: AC-3\nFormat/Info: Audio Coding 3\nMode extension: CM (complete main)\nFormat settings, Endianness: Big\nCodec ID: A_AC3\nDuration: 1h 56mn\nBit rate mode: Constant\nBit rate: 640 Kbps\nChannel(s): 6 channels\nChannel positions: Front: L C R, Side: L R, LFE\nSampling rate: 48.0 KHz\nBit depth: 16 bits\nCompression mode: Lossy\nStream size: 533 MiB (21%)\nLanguage: English\nDefault: Yes\nForced: No\n\n\n\n","torrent":{"xt":"urn:btih:29b80da137fc25bbb3405d0ce066e097eb80335f","amp;dn":"Full+Metal+Jacket+%281987%29+720p+MKV+x264+AC3+BRrip+%5BPioneer%5D","amp;tr":["udp%3A%2F%2Ftracker.openbittorrent.com%3A80","udp%3A%2F%2Fopen.demonii.com%3A1337","udp%3A%2F%2Ftracker.coppersurfer.tk%3A6969","udp%3A%2F%2Fexodus.desync.com%3A6969"],"infoHash":"29b80da137fc25bbb3405d0ce066e097eb80335f","infoHashBuffer":{"type":"Buffer","data":[41,184,13,161,55,252,37,187,179,64,93,12,224,102,224,151,235,128,51,95]},"announce":[],"urlList":[]}}